<?xml version="1.0" encoding="UTF-8" standalone="no"?>
<svg xmlns:svg="http://www.w3.org/2000/svg" xmlns="http://www.w3.org/2000/svg"
     version="1.0" width="400px"  height="400px" viewBox="-10 -10 200 200">
    <defs />
    <g>
        <path d="M 73.93,1.076 C 58.54,0.8416 46.24,15.13 43.3,30.43 40.45,44.48 43.44,59.24 48.24,72.41 50.15,79.27 57.55,83.18 56.2,90.98 57.03,99.45 50.13,104.7 44.32,108.8 34.11,115.9 20.31,114.9 11.38,124.5 4.798,130.7 3.919,140.5 1.073,148.8 50.36,148.8 99.64,148.9 148.9,148.9 145.5,139.7 144.5,128.3 136,122.4 125.5,114 110.6,116.3 100.6,106.6 94.28,102.7 89.31,95.45 91.58,87.23 93.1,80.43 99.28,75.95 100.8,68.89 106.3,52.31 108.7,32.41 99.35,16.81 94.01,7.493 84.33,0.9133 73.93,1.076 z"
             style="fill:#999999;fill-opacity:1;fill-rule:evenodd;stroke:none;" />
    </g>
</svg>
